<svg width="56" height="40" viewBox="0 0 56 40" fill="none" xmlns="http://www.w3.org/2000/svg">
<rect width="56" height="40" rx="4" fill="#00529C"/>
<path fill-rule="evenodd" clip-rule="evenodd" d="M16.6011 17.3525H19.2701C20.3509 17.3525 21.1567 17.8308 21.1567 18.8375C21.1567 19.5756 20.7832 19.9867 20.1343 20.2045V20.221C20.9077 20.3809 21.3067 20.8004 21.3067 21.513C21.3067 22.9142 20.0842 23.2075 19.0451 23.2075H16.6011V17.3525ZM18.147 19.6678H18.5798C19.0869 19.6678 19.611 19.5419 19.611 19.0466C19.611 18.5104 19.1119 18.4596 18.596 18.4596H18.147V19.6678ZM18.147 22.1005H18.6051C19.1699 22.1005 19.76 22.0165 19.76 21.4208C19.76 20.7838 19.1534 20.7245 18.6213 20.7245H18.147V22.1005Z" fill="white"/>
<path fill-rule="evenodd" clip-rule="evenodd" d="M23.3362 17.3525H25.2319L27.4684 23.2075H25.7722L25.3402 21.958H23.1618L22.7043 23.2075H21.1331L23.3362 17.3525ZM24.2844 18.5607H24.267L23.5192 20.8509H24.974L24.2844 18.5607Z" fill="white"/>
<path fill-rule="evenodd" clip-rule="evenodd" d="M27.6838 17.3525H29.6542L31.6164 21.3289H31.6326L31.6081 17.3525H33.0219V23.2075H31.1012L29.0719 19.2064H29.0559L29.1055 23.2075H27.6838V17.3525Z" fill="white"/>
<path fill-rule="evenodd" clip-rule="evenodd" d="M33.5466 17.3525H35.0928V19.7439H35.1095L36.8549 17.3525H38.7179L36.5725 20.0786L38.8842 23.2075H36.9131L35.1095 20.5486H35.0928V23.2075H33.5466V17.3525Z" fill="white"/>
<path fill-rule="evenodd" clip-rule="evenodd" d="M40.8015 17.3525H43.4706C44.5511 17.3525 45.3579 17.8308 45.3579 18.8375C45.3579 19.5756 44.9844 19.9867 44.3355 20.2045V20.221C45.1086 20.3809 45.5077 20.8004 45.5077 21.513C45.5077 22.9142 44.2854 23.2075 43.2466 23.2075H40.8015V17.3525ZM42.3482 19.6678H42.7802C43.2876 19.6678 43.8109 19.5419 43.8109 19.0466C43.8109 18.5104 43.3126 18.4596 42.7974 18.4596H42.3482V19.6678ZM42.3482 22.1005H42.8058C43.3706 22.1005 43.9612 22.0165 43.9612 21.4208C43.9612 20.7838 43.3544 20.7245 42.8222 20.7245H42.3482V22.1005Z" fill="white"/>
<path fill-rule="evenodd" clip-rule="evenodd" d="M45.8503 17.3525H48.6107C49.6415 17.3525 50.4816 17.8221 50.4816 18.8293C50.4816 19.6093 50.1157 20.1294 49.3676 20.3053V20.3219C49.8654 20.4565 49.8993 20.9007 50.1903 21.6138L50.7559 23.2075H49.1432L48.8104 22.1513C48.4943 21.1445 48.2947 20.8923 47.721 20.8923H47.3965V23.2075H45.8503V17.3525ZM47.3965 19.7852H47.8042C48.303 19.7852 48.9352 19.7681 48.9352 19.1056C48.9352 18.5607 48.3941 18.4596 47.8042 18.4596H47.3965V19.7852Z" fill="white"/>
<mask id="mask0_1201_926" style="mask-type:luminance" maskUnits="userSpaceOnUse" x="3" y="14" width="50" height="13">
<path fill-rule="evenodd" clip-rule="evenodd" d="M3.19995 26.1645H52.7281V14.3999H3.19995V26.1645Z" fill="white"/>
</mask>
<g mask="url(#mask0_1201_926)">
<path fill-rule="evenodd" clip-rule="evenodd" d="M51.1819 23.2075H52.7281V17.3525H51.1819V23.2075Z" fill="white"/>
<path fill-rule="evenodd" clip-rule="evenodd" d="M13.0721 14.3999H4.97872C3.99633 14.3999 3.19995 15.2233 3.19995 16.2392V16.2586V24.3257C3.19995 25.3316 3.98166 26.1494 4.95139 26.1645H13.0678C14.0505 26.1645 14.8471 25.3411 14.8471 24.3257L14.8509 16.2392C14.8509 15.2233 14.0548 14.3999 13.0721 14.3999ZM5.94086 25.2219L5.49927 25.2267C4.9648 25.2267 4.53156 24.7837 4.53156 24.2371L4.52903 24.1592V16.6911L4.53181 16.289C4.5518 15.76 4.95012 15.3341 5.47193 15.3341H6.36954C7.18288 15.3341 7.84261 16.0477 7.84261 16.8898C7.84261 17.3059 7.68091 17.6838 7.41899 17.9585L5.12878 20.3031L7.27525 22.5083C7.5521 22.7961 7.71937 23.1745 7.71937 23.5888C7.71937 24.4909 6.92299 25.2219 5.94086 25.2219ZM12.5397 25.2145L8.53777 25.2127C8.53777 25.2127 9.00062 24.2036 9.00062 23.5791C9.00062 22.8178 8.74807 22.1373 8.35304 21.6872L6.98423 20.2794L8.38138 18.8231C8.79716 18.4286 9.0735 17.7285 9.0735 16.9311C9.0735 16.2997 8.90041 15.7403 8.62179 15.3341H9.59152C10.4051 15.3341 11.0648 16.0477 11.0648 16.8898C11.0648 17.3059 10.9034 17.6838 10.6415 17.9585L8.39505 20.2786L13.0607 25.0789C12.9129 25.1728 12.7264 25.2145 12.5397 25.2145ZM13.517 23.7157L10.1733 20.2776L11.7658 18.6446C12.0902 18.2358 12.2957 17.6197 12.2957 16.9311C12.2957 16.2956 12.1201 15.7227 11.839 15.3162L12.5518 15.3377C13.0863 15.3377 13.5195 15.7814 13.5195 16.3278L13.517 23.7157Z" fill="white"/>
</g>
</svg>
