<svg width="56" height="40" viewBox="0 0 56 40" fill="none" xmlns="http://www.w3.org/2000/svg">
<rect width="56" height="40" rx="4" fill="white"/>
<path d="M19.9256 16.9434H19.908V16.945C19.9139 16.9445 19.9189 16.944 19.9256 16.9434Z" fill="#168F8C"/>
<path d="M20.0312 16.7891V26.6415H22.3359V19.2576C22.3359 18.7062 22.0432 17.0401 20.0312 16.7891Z" fill="#0CA49D"/>
<path d="M7.78066 24.9269C8.07376 24.9269 8.31334 24.8896 8.49947 24.8148C8.68539 24.74 8.83091 24.6433 8.93612 24.5246C9.04102 24.4059 9.11316 24.2718 9.1526 24.1223C9.19197 23.9729 9.21162 23.8212 9.21162 23.6673C9.21162 23.4915 9.18867 23.3332 9.14263 23.1924C9.09689 23.0517 9.018 22.9331 8.90635 22.8363C8.79492 22.7396 8.64712 22.6648 8.46333 22.612C8.27954 22.5593 8.04758 22.5329 7.76746 22.5329H6.21854V24.9269H7.78066ZM6.21854 18.6681V21.0424H7.37378C7.61871 21.0424 7.83982 21.0249 8.03673 20.9896C8.2335 20.9544 8.40102 20.8929 8.53877 20.8049C8.67652 20.717 8.78172 20.5962 8.85386 20.4422C8.926 20.2884 8.96221 20.0949 8.96221 19.8619C8.96221 19.6333 8.9337 19.4431 8.87688 19.2914C8.81992 19.1397 8.73238 19.0177 8.61428 18.9253C8.49618 18.833 8.34618 18.7671 8.16474 18.7274C7.98314 18.6879 7.76746 18.6681 7.5182 18.6681H6.21854ZM7.5182 16.9995C8.17888 16.9995 8.74125 17.0612 9.20509 17.1842C9.66879 17.3074 10.0474 17.481 10.3407 17.7052C10.6337 17.9295 10.847 18.2021 10.9806 18.523C11.114 18.844 11.1808 19.2023 11.1808 19.5981C11.1808 19.8135 11.1501 20.0213 11.089 20.2213C11.0277 20.4215 10.9313 20.6082 10.8001 20.7818C10.6688 20.9556 10.5003 21.1149 10.2946 21.2601C10.0889 21.4051 9.8418 21.5305 9.55303 21.6359C10.183 21.7898 10.6491 22.0382 10.951 22.3812C11.2529 22.7241 11.4041 23.1683 11.4041 23.7134C11.4041 24.1223 11.3253 24.5027 11.1676 24.8544C11.0102 25.2062 10.7792 25.5129 10.4751 25.7744C10.171 26.036 9.79576 26.2405 9.34937 26.3878C8.9032 26.5352 8.39332 26.6087 7.82017 26.6087H4V16.9995H7.5182Z" fill="#0CA49D"/>
<path d="M18.0727 18.9517C18.007 19.0574 17.9383 19.1364 17.8659 19.1892C17.7938 19.242 17.7008 19.2683 17.587 19.2683C17.4864 19.2683 17.3781 19.2364 17.2621 19.1727C17.1462 19.1089 17.0148 19.0375 16.8684 18.9584C16.7217 18.8792 16.5543 18.8077 16.3662 18.744C16.1781 18.6803 15.9636 18.6484 15.7228 18.6484C15.3071 18.6484 14.9975 18.7374 14.7941 18.9156C14.5907 19.0935 14.4888 19.3343 14.4888 19.6377C14.4888 19.8312 14.5502 19.9917 14.6726 20.1191C14.795 20.2466 14.956 20.3566 15.1552 20.4489C15.3543 20.5412 15.5819 20.6259 15.8378 20.7028C16.0938 20.7798 16.3552 20.8655 16.6221 20.96C16.889 21.0546 17.1507 21.1656 17.4065 21.293C17.6625 21.4206 17.8902 21.5832 18.0892 21.7811C18.2883 21.979 18.4491 22.2197 18.5716 22.5032C18.694 22.7868 18.7554 23.1288 18.7554 23.5288C18.7554 23.973 18.6789 24.3885 18.5258 24.7752C18.3725 25.1622 18.1503 25.4997 17.8594 25.7877C17.5683 26.0757 17.2096 26.3021 16.7831 26.4669C16.3563 26.6319 15.8716 26.7143 15.3291 26.7143C15.0315 26.7143 14.7284 26.6835 14.4201 26.622C14.1115 26.5604 13.8129 26.4735 13.5241 26.3614C13.2352 26.2493 12.9639 26.1163 12.7101 25.9625C12.4561 25.8086 12.2352 25.6371 12.0471 25.4479L12.7035 24.406C12.7561 24.3312 12.8249 24.2686 12.9102 24.218C12.9955 24.1675 13.0885 24.1422 13.1894 24.1422C13.3205 24.1422 13.4527 24.1839 13.5864 24.2675C13.7199 24.3511 13.8708 24.4433 14.0393 24.5445C14.2077 24.6457 14.4014 24.738 14.6202 24.8215C14.8389 24.905 15.0972 24.9468 15.3948 24.9468C15.7973 24.9468 16.1102 24.8577 16.3334 24.6797C16.5565 24.5016 16.6681 24.2191 16.6681 23.8323C16.6681 23.6079 16.6067 23.4256 16.4844 23.2848C16.3618 23.1442 16.2009 23.0276 16.002 22.9352C15.8026 22.8429 15.5762 22.7615 15.3224 22.6912C15.0687 22.621 14.8082 22.5429 14.5415 22.457C14.2744 22.3713 14.0141 22.2659 13.7603 22.1406C13.5064 22.0152 13.2799 21.8504 13.0811 21.646C12.8818 21.4414 12.7209 21.1865 12.5985 20.8809C12.4761 20.5753 12.4147 20.1983 12.4147 19.7498C12.4147 19.3893 12.4868 19.0375 12.6313 18.6945C12.7758 18.3516 12.9879 18.046 13.268 17.7779C13.5481 17.5098 13.8917 17.2953 14.2985 17.1347C14.7055 16.9743 15.1715 16.894 15.6967 16.894C15.9898 16.894 16.2753 16.9172 16.5533 16.9634C16.831 17.0094 17.0948 17.0777 17.3442 17.1678C17.5938 17.2579 17.8266 17.3657 18.0432 17.491C18.2599 17.6163 18.4534 17.758 18.6241 17.9163L18.0727 18.9517Z" fill="#0CA49D"/>
<path d="M22.5887 13.238C22.5837 13.1575 22.5745 13.0782 22.5625 13C23.0782 13.5348 23.8146 13.8483 24.6121 13.7977C24.9936 13.7734 25.3504 13.6678 25.6679 13.4996C25.4213 13.932 25.2933 14.4393 25.3271 14.9738C25.3687 15.6356 25.6505 16.2243 26.0811 16.661C25.8608 16.6164 25.6314 16.5992 25.3965 16.6143C24.4633 16.6735 23.6758 17.2165 23.2587 17.9845C23.094 16.8493 22.2178 15.9668 21.1221 15.7726C22.0478 15.318 22.6578 14.3354 22.5887 13.238Z" fill="#F9AD3C"/>
<path d="M26.5431 22.71C26.6487 22.71 26.7398 22.6978 26.8161 22.6735C26.8925 22.6492 26.9549 22.6153 27.0032 22.5718C27.0529 22.527 27.0892 22.4745 27.112 22.4144C27.135 22.353 27.1464 22.2859 27.1464 22.2129C27.1464 22.0709 27.0961 21.959 26.9955 21.8771C26.895 21.7939 26.7442 21.7523 26.5431 21.7523H25.9512V22.71H26.5431ZM25.9512 20.549V21.4875H26.44C26.5444 21.4875 26.6347 21.476 26.7111 21.4529C26.7887 21.4299 26.8524 21.3979 26.902 21.357C26.9529 21.316 26.9905 21.2668 27.0147 21.2092C27.0389 21.1503 27.051 21.0864 27.051 21.0173C27.051 20.8548 27.0026 20.7365 26.9058 20.6622C26.8091 20.5867 26.6589 20.549 26.4552 20.549H25.9512ZM26.4552 20.2554C26.6233 20.2554 26.7678 20.272 26.8887 20.3053C27.0109 20.3385 27.1108 20.3859 27.1884 20.4473C27.2673 20.5087 27.3252 20.5842 27.3622 20.6737C27.399 20.762 27.4175 20.8618 27.4175 20.9732C27.4175 21.041 27.4067 21.1062 27.385 21.1689C27.3647 21.2303 27.3335 21.2879 27.2915 21.3416C27.2495 21.3954 27.196 21.444 27.1311 21.4875C27.0675 21.5297 26.9924 21.5643 26.9058 21.5911C27.107 21.6295 27.2578 21.7018 27.3584 21.808C27.4601 21.9129 27.5111 22.0511 27.5111 22.2225C27.5111 22.3389 27.4894 22.4451 27.4461 22.5411C27.4042 22.637 27.3418 22.7196 27.259 22.7887C27.1776 22.8577 27.0771 22.9115 26.9574 22.9499C26.8378 22.987 26.7016 23.0055 26.5488 23.0055H25.5828V20.2554H26.4552Z" fill="#0CA49D"/>
<path d="M29.4669 21.9845L29.0373 20.8656C29.0246 20.8324 29.0112 20.794 28.9972 20.7505C28.9832 20.7057 28.9698 20.6584 28.9571 20.6085C28.9304 20.7121 28.903 20.7985 28.875 20.8676L28.4454 21.9845H29.4669ZM30.2382 23.0055H29.9518C29.9187 23.0055 29.892 22.9973 29.8716 22.9806C29.8512 22.9639 29.836 22.9429 29.8258 22.9172L29.57 22.2532H28.3424L28.0865 22.9172C28.0789 22.9403 28.0642 22.9608 28.0426 22.9787C28.021 22.9966 27.9942 23.0055 27.9624 23.0055H27.676L28.77 20.2554H29.1442L30.2382 23.0055Z" fill="#0CA49D"/>
<path d="M32.8147 20.2554V23.0055H32.6295C32.6002 23.0055 32.5754 23.0004 32.555 22.9902C32.536 22.9799 32.5168 22.9627 32.4978 22.9384L30.9151 20.8656C30.9176 20.8976 30.9195 20.929 30.9208 20.9597C30.922 20.9904 30.9227 21.0192 30.9227 21.046V23.0055H30.5981V20.2554H30.789C30.8055 20.2554 30.8195 20.2566 30.8311 20.2592C30.8425 20.2605 30.8527 20.2637 30.8616 20.2688C30.8705 20.2726 30.8794 20.279 30.8883 20.2879C30.8973 20.2957 30.9068 20.3059 30.917 20.3187L32.4997 22.3895C32.4971 22.3562 32.4946 22.3242 32.4921 22.2935C32.4907 22.2616 32.4902 22.2315 32.4902 22.2033V20.2554H32.8147Z" fill="#0CA49D"/>
<path d="M33.8827 21.4606H34.0221C34.0704 21.4606 34.1092 21.4548 34.1385 21.4433C34.1678 21.4305 34.1945 21.4094 34.2187 21.38L35.1293 20.3437C35.1549 20.3103 35.1815 20.2874 35.2096 20.2745C35.2376 20.2618 35.2719 20.2554 35.3127 20.2554H35.6257L34.5833 21.4395C34.5579 21.4702 34.533 21.4958 34.5089 21.5163C34.486 21.5354 34.4612 21.5514 34.4344 21.5643C34.4688 21.5758 34.5 21.593 34.528 21.6161C34.556 21.6378 34.5833 21.6666 34.6101 21.7024L35.6983 23.0055H35.3776C35.3534 23.0055 35.3324 23.0043 35.3146 23.0017C35.298 22.9978 35.2834 22.9928 35.2707 22.9863C35.2579 22.9787 35.2465 22.9704 35.2363 22.9614C35.2274 22.9512 35.2185 22.9396 35.2096 22.9269L34.2664 21.8349C34.241 21.8029 34.2136 21.7805 34.1843 21.7677C34.155 21.7536 34.1105 21.7466 34.0507 21.7466H33.8827V23.0055H33.5142V20.2554H33.8827V21.4606Z" fill="#0CA49D"/>
<path d="M38.4187 20.6857C38.4073 20.7049 38.3945 20.7196 38.3805 20.7298C38.3678 20.7388 38.3519 20.7433 38.3328 20.7433C38.3112 20.7433 38.2857 20.7324 38.2564 20.7107C38.2272 20.6889 38.1903 20.6652 38.1457 20.6396C38.1024 20.6128 38.0496 20.5885 37.9872 20.5667C37.9261 20.5449 37.8517 20.5341 37.7639 20.5341C37.6811 20.5341 37.608 20.5456 37.5443 20.5687C37.4819 20.5904 37.4291 20.6205 37.3858 20.6589C37.3438 20.6972 37.312 20.7427 37.2904 20.7951C37.2688 20.8463 37.2579 20.9019 37.2579 20.962C37.2579 21.0388 37.2764 21.1028 37.3133 21.154C37.3515 21.2039 37.4011 21.2467 37.4622 21.2825C37.5246 21.3184 37.5945 21.3498 37.6722 21.3766C37.7511 21.4022 37.8313 21.429 37.9128 21.4572C37.9955 21.4854 38.0757 21.5173 38.1533 21.5531C38.2323 21.5877 38.3023 21.6319 38.3634 21.6856C38.4257 21.7393 38.4754 21.8053 38.5123 21.8833C38.5505 21.9613 38.5695 22.0573 38.5695 22.1712C38.5695 22.2914 38.5492 22.4046 38.5084 22.5108C38.4678 22.6158 38.4079 22.7072 38.329 22.7853C38.2513 22.8634 38.1552 22.9248 38.0407 22.9696C37.9274 23.0143 37.7982 23.0367 37.6531 23.0367C37.4749 23.0367 37.3133 23.0047 37.1682 22.9407C37.0231 22.8755 36.899 22.7878 36.7959 22.6778L36.9028 22.5012C36.913 22.4872 36.9251 22.4757 36.9391 22.4667C36.9543 22.4565 36.9709 22.4513 36.9887 22.4513C37.0053 22.4513 37.0238 22.4584 37.0441 22.4725C37.0658 22.4852 37.0899 22.5019 37.1166 22.5224C37.1434 22.5429 37.1739 22.5652 37.2083 22.5895C37.2427 22.6138 37.2814 22.6362 37.3248 22.6567C37.3693 22.6771 37.4196 22.6945 37.4756 22.7085C37.5316 22.7213 37.5945 22.7277 37.6646 22.7277C37.7524 22.7277 37.8307 22.7155 37.8995 22.6912C37.9681 22.667 38.0261 22.633 38.0731 22.5895C38.1215 22.5448 38.1585 22.4917 38.1839 22.4303C38.2093 22.3688 38.2221 22.3003 38.2221 22.2249C38.2221 22.1418 38.203 22.074 38.1648 22.0215C38.1279 21.9677 38.0789 21.923 38.0178 21.8871C37.9567 21.8513 37.8867 21.8213 37.8077 21.7969C37.7289 21.7714 37.6487 21.7457 37.5672 21.7201C37.4858 21.6932 37.4056 21.6626 37.3267 21.628C37.2477 21.5935 37.1777 21.5487 37.1166 21.4937C37.0556 21.4387 37.0059 21.3702 36.9677 21.2884C36.9308 21.2052 36.9124 21.1028 36.9124 20.9813C36.9124 20.884 36.9308 20.79 36.9677 20.6992C37.0059 20.6083 37.0606 20.5277 37.1319 20.4573C37.2045 20.3869 37.2929 20.3306 37.3973 20.2884C37.5029 20.2462 37.6239 20.2251 37.76 20.2251C37.9128 20.2251 38.0515 20.2494 38.1763 20.2981C38.3023 20.3466 38.413 20.417 38.5084 20.5091L38.4187 20.6857Z" fill="#0CA49D"/>
<path d="M40.0638 21.9097V23.0055H39.6935V21.9097L38.6912 20.2554H39.0157C39.0488 20.2554 39.0749 20.2637 39.094 20.2803C39.1131 20.2957 39.1296 20.3161 39.1436 20.3417L39.7699 21.4107C39.7927 21.4555 39.8138 21.4977 39.8328 21.5374C39.852 21.5758 39.8685 21.6147 39.8825 21.6545C39.8965 21.6147 39.9124 21.5758 39.9302 21.5374C39.9481 21.4977 39.9678 21.4555 39.9894 21.4107L40.6137 20.3417C40.6252 20.32 40.6411 20.3001 40.6615 20.2822C40.6818 20.2643 40.7079 20.2554 40.7397 20.2554H41.0662L40.0638 21.9097Z" fill="#0CA49D"/>
<path d="M42.6041 21.9845L42.1745 20.8656C42.1618 20.8324 42.1485 20.794 42.1344 20.7505C42.1204 20.7057 42.107 20.6584 42.0943 20.6085C42.0676 20.7121 42.0402 20.7985 42.0122 20.8676L41.5826 21.9845H42.6041ZM43.3754 23.0055H43.089C43.0559 23.0055 43.0292 22.9973 43.0088 22.9806C42.9885 22.9639 42.9732 22.9429 42.963 22.9172L42.7072 22.2532H41.4796L41.2237 22.9172C41.2161 22.9403 41.2014 22.9608 41.1798 22.9787C41.1582 22.9966 41.1315 23.0055 41.0996 23.0055H40.8132L41.9072 20.2554H42.2814L43.3754 23.0055Z" fill="#0CA49D"/>
<path d="M44.4931 21.5873C44.6 21.5873 44.6942 21.5745 44.7756 21.5489C44.8583 21.522 44.9271 21.4849 44.9818 21.4376C45.0378 21.3889 45.0798 21.3314 45.1078 21.2648C45.1358 21.1983 45.1498 21.1247 45.1498 21.0441C45.1498 20.8804 45.0964 20.7569 44.9895 20.6737C44.8825 20.5905 44.7222 20.549 44.5083 20.549H44.1036V21.5873H44.4931ZM45.757 23.0055H45.4285C45.3611 23.0055 45.3114 22.9793 45.2796 22.9269L44.5694 21.9442C44.5478 21.9135 44.5242 21.8918 44.4988 21.879C44.4746 21.8649 44.4364 21.8579 44.3842 21.8579H44.1036V23.0055H43.7351V20.2554H44.5083C44.6814 20.2554 44.831 20.2733 44.957 20.3091C45.083 20.3437 45.1867 20.3941 45.2682 20.4607C45.3509 20.5272 45.412 20.6079 45.4515 20.7026C45.4909 20.7959 45.5106 20.9009 45.5106 21.0173C45.5106 21.1145 45.4954 21.2054 45.4648 21.2898C45.4342 21.3742 45.3897 21.4503 45.3312 21.5182C45.2739 21.5847 45.2032 21.6416 45.1192 21.689C45.0365 21.7363 44.9423 21.7722 44.8367 21.7965C44.8838 21.8233 44.9245 21.8624 44.9589 21.9135L45.757 23.0055Z" fill="#0CA49D"/>
<path d="M46.4995 23.0055H46.1292V20.2554H46.4995V23.0055Z" fill="#0CA49D"/>
<path d="M48.6522 21.9845L48.2226 20.8656C48.2099 20.8324 48.1965 20.794 48.1825 20.7505C48.1685 20.7057 48.1551 20.6584 48.1424 20.6085C48.1157 20.7121 48.0883 20.7985 48.0603 20.8676L47.6307 21.9845H48.6522ZM49.4235 23.0055H49.1371C49.104 23.0055 49.0773 22.9973 49.0569 22.9806C49.0365 22.9639 49.0213 22.9429 49.0111 22.9172L48.7552 22.2532H47.5277L47.2718 22.9172C47.2642 22.9403 47.2495 22.9608 47.2279 22.9787C47.2063 22.9966 47.1795 23.0055 47.1477 23.0055H46.8613L47.9553 20.2554H48.3295L49.4235 23.0055Z" fill="#0CA49D"/>
<path d="M52 20.2554V23.0055H51.6296V21.7542H50.1538V23.0055H49.7834V20.2554H50.1538V21.4817H51.6296V20.2554H52Z" fill="#0CA49D"/>
<path d="M25.9531 26.6311H25.5828V23.8809H25.9531V26.6311Z" fill="#0CA49D"/>
<path d="M28.8694 23.8809V26.6311H28.6842C28.655 26.6311 28.6301 26.626 28.6098 26.6157C28.5907 26.6055 28.5716 26.5882 28.5525 26.5639L26.9698 24.4912C26.9723 24.5232 26.9742 24.5545 26.9755 24.5852C26.9768 24.616 26.9774 24.6447 26.9774 24.6716V26.6311H26.6528V23.8809H26.8437C26.8603 23.8809 26.8743 23.8822 26.8857 23.8848C26.8972 23.886 26.9074 23.8892 26.9163 23.8943C26.9252 23.8982 26.9341 23.9046 26.943 23.9135C26.9519 23.9212 26.9615 23.9314 26.9717 23.9442L28.5544 26.015C28.5519 25.9817 28.5493 25.9498 28.5468 25.919C28.5455 25.887 28.5449 25.857 28.5449 25.8288V23.8809H28.8694Z" fill="#0CA49D"/>
<path d="M31.9401 25.257C31.9401 25.4629 31.9076 25.6503 31.8427 25.8192C31.7778 25.9882 31.6861 26.1327 31.5678 26.253C31.4494 26.3733 31.3068 26.4667 31.1401 26.5332C30.9747 26.5984 30.7914 26.6311 30.5903 26.6311H29.5688V23.8809H30.5903C30.7914 23.8809 30.9747 23.9142 31.1401 23.9807C31.3068 24.0459 31.4494 24.1393 31.5678 24.2609C31.6861 24.3812 31.7778 24.5258 31.8427 24.6946C31.9076 24.8635 31.9401 25.051 31.9401 25.257ZM31.5601 25.257C31.5601 25.0881 31.5373 24.9371 31.4914 24.804C31.4456 24.6709 31.3807 24.5583 31.2966 24.4662C31.2127 24.3741 31.1109 24.3037 30.9912 24.2552C30.8716 24.2065 30.7379 24.1822 30.5903 24.1822H29.9392V26.3297H30.5903C30.7379 26.3297 30.8716 26.3055 30.9912 26.2569C31.1109 26.2082 31.2127 26.1385 31.2966 26.0476C31.3807 25.9555 31.4456 25.8429 31.4914 25.7099C31.5373 25.5768 31.5601 25.4258 31.5601 25.257Z" fill="#0CA49D"/>
<path d="M35.0017 25.2569C35.0017 25.4628 34.9693 25.6522 34.9043 25.8249C34.8394 25.9964 34.7478 26.1441 34.6294 26.2682C34.5111 26.3923 34.3685 26.489 34.2018 26.558C34.0363 26.6259 33.853 26.6598 33.6519 26.6598C33.4508 26.6598 33.2675 26.6259 33.102 26.558C32.9366 26.489 32.7946 26.3923 32.6763 26.2682C32.5579 26.1441 32.4663 25.9964 32.4014 25.8249C32.3364 25.6522 32.304 25.4628 32.304 25.2569C32.304 25.0509 32.3364 24.8621 32.4014 24.6907C32.4663 24.5179 32.5579 24.3696 32.6763 24.2454C32.7946 24.12 32.9366 24.0228 33.102 23.9537C33.2675 23.8847 33.4508 23.8501 33.6519 23.8501C33.853 23.8501 34.0363 23.8847 34.2018 23.9537C34.3685 24.0228 34.5111 24.12 34.6294 24.2454C34.7478 24.3696 34.8394 24.5179 34.9043 24.6907C34.9693 24.8621 35.0017 25.0509 35.0017 25.2569ZM34.6218 25.2569C34.6218 25.0879 34.5989 24.9364 34.5531 24.802C34.5072 24.6677 34.4423 24.5544 34.3583 24.4623C34.2743 24.3689 34.1724 24.2973 34.0528 24.2474C33.9331 24.1974 33.7995 24.1725 33.6519 24.1725C33.5055 24.1725 33.3725 24.1974 33.2529 24.2474C33.1332 24.2973 33.0308 24.3689 32.9455 24.4623C32.8615 24.5544 32.7965 24.6677 32.7507 24.802C32.7049 24.9364 32.682 25.0879 32.682 25.2569C32.682 25.4257 32.7049 25.5774 32.7507 25.7117C32.7965 25.8447 32.8615 25.958 32.9455 26.0514C33.0308 26.1435 33.1332 26.2145 33.2529 26.2644C33.3725 26.3131 33.5055 26.3374 33.6519 26.3374C33.7995 26.3374 33.9331 26.3131 34.0528 26.2644C34.1724 26.2145 34.2743 26.1435 34.3583 26.0514C34.4423 25.958 34.5072 25.8447 34.5531 25.7117C34.5989 25.5774 34.6218 25.4257 34.6218 25.2569Z" fill="#0CA49D"/>
<path d="M37.7481 23.8809V26.6311H37.5629C37.5336 26.6311 37.5088 26.626 37.4885 26.6157C37.4693 26.6055 37.4503 26.5882 37.4311 26.5639L35.8484 24.4912C35.851 24.5232 35.8529 24.5545 35.8541 24.5852C35.8555 24.616 35.856 24.6447 35.856 24.6716V26.6311H35.5315V23.8809H35.7224C35.739 23.8809 35.753 23.8822 35.7644 23.8848C35.7758 23.886 35.786 23.8892 35.795 23.8943C35.8038 23.8982 35.8128 23.9046 35.8217 23.9135C35.8306 23.9212 35.8401 23.9314 35.8503 23.9442L37.433 26.015C37.4305 25.9817 37.428 25.9498 37.4254 25.919C37.4242 25.887 37.4235 25.857 37.4235 25.8288V23.8809H37.7481Z" fill="#0CA49D"/>
<path d="M40.1353 26.3278L40.1334 26.6311H38.4475V23.8809H40.1334V24.1841H38.8179V25.0976H39.8832V25.3894H38.8179V26.3278H40.1353Z" fill="#0CA49D"/>
<path d="M42.0508 24.3107C42.0394 24.3299 42.0266 24.3446 42.0126 24.3548C41.9999 24.3637 41.984 24.3682 41.9649 24.3682C41.9433 24.3682 41.9178 24.3574 41.8885 24.3356C41.8592 24.3139 41.8224 24.2902 41.7778 24.2646C41.7345 24.2377 41.6817 24.2134 41.6193 24.1917C41.5582 24.1699 41.4837 24.1591 41.3959 24.1591C41.3132 24.1591 41.2401 24.1706 41.1764 24.1936C41.114 24.2153 41.0612 24.2454 41.0179 24.2838C40.9759 24.3222 40.9441 24.3676 40.9225 24.4201C40.9008 24.4713 40.89 24.5269 40.89 24.587C40.89 24.6638 40.9085 24.7278 40.9453 24.7789C40.9835 24.8288 41.0332 24.8717 41.0943 24.9075C41.1566 24.9434 41.2266 24.9748 41.3043 25.0016C41.3832 25.0271 41.4634 25.054 41.5449 25.0822C41.6276 25.1104 41.7078 25.1423 41.7854 25.1781C41.8644 25.2127 41.9343 25.2569 41.9955 25.3106C42.0578 25.3643 42.1075 25.4302 42.1444 25.5082C42.1825 25.5863 42.2016 25.6822 42.2016 25.7962C42.2016 25.9164 42.1813 26.0296 42.1405 26.1358C42.0998 26.2408 42.04 26.3322 41.9611 26.4103C41.8834 26.4883 41.7873 26.5498 41.6728 26.5945C41.5595 26.6393 41.4303 26.6617 41.2852 26.6617C41.107 26.6617 40.9453 26.6297 40.8003 26.5657C40.6552 26.5005 40.5311 26.4128 40.428 26.3028L40.5349 26.1262C40.5451 26.1122 40.5572 26.1007 40.5712 26.0917C40.5864 26.0814 40.603 26.0763 40.6208 26.0763C40.6374 26.0763 40.6558 26.0833 40.6761 26.0974C40.6978 26.1102 40.722 26.1269 40.7487 26.1473C40.7755 26.1678 40.806 26.1902 40.8404 26.2145C40.8747 26.2388 40.9135 26.2612 40.9568 26.2817C41.0013 26.3021 41.0516 26.3195 41.1076 26.3335C41.1637 26.3463 41.2266 26.3527 41.2966 26.3527C41.3845 26.3527 41.4628 26.3405 41.5315 26.3162C41.6002 26.2919 41.6581 26.258 41.7052 26.2145C41.7536 26.1697 41.7905 26.1167 41.816 26.0552C41.8414 25.9938 41.8542 25.9253 41.8542 25.8499C41.8542 25.7667 41.835 25.6989 41.7969 25.6464C41.76 25.5927 41.7109 25.548 41.6499 25.5121C41.5888 25.4762 41.5188 25.4462 41.4398 25.4219C41.3609 25.3963 41.2807 25.3707 41.1993 25.3451C41.1178 25.3182 41.0376 25.2875 40.9588 25.253C40.8798 25.2185 40.8098 25.1737 40.7487 25.1187C40.6876 25.0636 40.638 24.9952 40.5998 24.9133C40.5629 24.8302 40.5444 24.7278 40.5444 24.6062C40.5444 24.509 40.5629 24.415 40.5998 24.3241C40.638 24.2333 40.6927 24.1527 40.764 24.0823C40.8365 24.0119 40.925 23.9556 41.0294 23.9134C41.135 23.8712 41.256 23.8501 41.3921 23.8501C41.5449 23.8501 41.6836 23.8744 41.8084 23.923C41.9343 23.9716 42.0451 24.042 42.1405 24.1341L42.0508 24.3107Z" fill="#0CA49D"/>
<path d="M43.0948 26.6311H42.7244V23.8809H43.0948V26.6311Z" fill="#0CA49D"/>
<path d="M45.2476 25.6101L44.818 24.4912C44.8053 24.4579 44.7919 24.4196 44.7779 24.376C44.7639 24.3313 44.7506 24.2839 44.7378 24.234C44.7111 24.3376 44.6838 24.424 44.6558 24.4931L44.2262 25.6101H45.2476ZM46.0189 26.6311H45.7326C45.6995 26.6311 45.6728 26.6227 45.6524 26.6061C45.632 26.5895 45.6168 26.5684 45.6066 26.5428L45.3507 25.8787H44.1231L43.8673 26.5428C43.8596 26.5659 43.845 26.5863 43.8233 26.6042C43.8017 26.6222 43.775 26.6311 43.7431 26.6311H43.4568L44.5507 23.8809H44.925L46.0189 26.6311Z" fill="#0CA49D"/>
</svg>
