<svg width="80" height="80" viewBox="0 0 80 80" fill="none" xmlns="http://www.w3.org/2000/svg">
<g filter="url(#filter0_ii_1403_1458)">
<rect width="80" height="80" rx="40" fill="#658C4A"/>
<path d="M23.9922 44.6329C24.8464 44.6329 25.2733 45.0999 25.2728 46.034C25.2728 46.9479 24.8485 47.4126 23.9922 47.4126H20.4073V50.2983H24.9956C25.8489 50.2983 26.2757 50.7654 26.2762 51.6994C26.2762 52.6133 25.8519 53.0787 24.9956 53.0787H18.9556C17.8242 53.0787 17.3335 52.5866 17.3335 51.466V40.8986C17.3335 39.7738 17.8242 39.2859 18.9556 39.2859H24.8889C25.743 39.2859 26.1699 39.7527 26.1694 40.6863C26.1694 41.6002 25.7451 42.0656 24.8889 42.0656H20.4073V44.6329H23.9922Z" fill="white"/>
<path d="M33.8294 50.4685C34.5761 50.4685 35.1729 50.3201 35.7711 49.9595C36.1954 49.7043 36.4973 49.4716 36.8381 49.4716C37.5452 49.4716 38.2262 50.3412 38.2262 50.9992C38.2262 51.5504 37.7559 52.06 37.0517 52.4629C36.1324 52.9936 34.9388 53.3114 33.6159 53.3114C29.859 53.3114 26.9776 50.723 26.9776 46.1408C26.9776 41.5791 29.8378 39.054 33.5947 39.054C34.982 39.054 36.1982 39.3935 37.0517 39.8814C37.7588 40.2849 38.2262 40.7953 38.2262 41.3246C38.2262 42.0037 37.5 42.8944 36.7745 42.8944C36.4329 42.8944 36.1338 42.661 35.7075 42.4065C35.1736 42.067 34.4481 41.8976 33.7226 41.8976C31.8658 41.8976 30.3073 43.1278 30.3073 46.1198C30.3109 49.1314 31.9082 50.4685 33.8294 50.4685Z" fill="white"/>
<path d="M45.6245 39.0315C49.7865 39.0315 52.4756 41.7682 52.4756 46.1823C52.4756 50.5964 49.7886 53.3332 45.6245 53.3332C41.4604 53.3332 38.7734 50.5957 38.7734 46.1823C38.7734 41.7689 41.4625 39.0315 45.6245 39.0315ZM45.6245 50.5317C47.7373 50.5317 49.1466 48.962 49.1466 46.1823C49.1466 43.4027 47.7373 41.8322 45.6245 41.8322C43.5117 41.8322 42.1032 43.4027 42.1032 46.1823C42.1032 48.962 43.5117 50.5317 45.6245 50.5317Z" fill="white"/>
<path d="M43.6503 29.6191C40.1947 31.7154 39.5414 35.3133 39.9451 38.2933C41.5184 37.1833 45.411 38.3545 48.6127 36.3587C52.6022 33.8722 52.8666 29.0475 52.1857 26.6665C50.4081 29.0721 47.4658 27.3041 43.6503 29.6191Z" fill="white"/>
<path d="M36.5157 32.5984C38.7409 33.984 39.173 36.3425 38.9198 38.2926C37.9065 37.5601 35.4119 38.3144 33.3507 36.9963C30.7811 35.3541 30.593 32.1934 31.0236 30.6349C32.1769 32.2173 34.0585 31.0694 36.5157 32.5984Z" fill="white"/>
<path d="M56.5466 43.7248C56.2506 43.7248 55.9843 43.6743 55.7475 43.5734C55.5108 43.4683 55.3247 43.3212 55.1895 43.1321C55.0542 42.9429 54.9865 42.7222 54.9865 42.47H55.7602C55.7771 42.6591 55.8511 42.8147 55.9822 42.9366C56.1174 43.0585 56.3056 43.1194 56.5466 43.1194C56.796 43.1194 56.9905 43.0606 57.13 42.9429C57.2695 42.821 57.3392 42.6655 57.3392 42.4763C57.3392 42.3292 57.2948 42.2094 57.2061 42.1169C57.1215 42.0244 57.0137 41.9529 56.8826 41.9025C56.7558 41.8521 56.5783 41.7974 56.35 41.7386C56.0625 41.6629 55.8278 41.5872 55.646 41.5116C55.4685 41.4317 55.3163 41.3098 55.1895 41.1458C55.0626 40.9819 54.9992 40.7633 54.9992 40.4901C54.9992 40.2379 55.0626 40.0172 55.1895 39.828C55.3163 39.6389 55.4938 39.4938 55.7221 39.3929C55.9504 39.2921 56.2147 39.2416 56.5148 39.2416C56.9418 39.2416 57.2906 39.3488 57.5612 39.5632C57.836 39.7734 57.9882 40.0634 58.0178 40.4333H57.2188C57.2061 40.2736 57.13 40.137 56.9905 40.0235C56.8509 39.91 56.667 39.8532 56.4387 39.8532C56.2316 39.8532 56.0625 39.9058 55.9314 40.0109C55.8004 40.116 55.7348 40.2673 55.7348 40.4649C55.7348 40.5994 55.775 40.7108 55.8553 40.7991C55.9399 40.8831 56.0456 40.9504 56.1724 41.0008C56.2992 41.0513 56.4726 41.1059 56.6924 41.1648C56.9841 41.2446 57.2209 41.3245 57.4027 41.4044C57.5887 41.4842 57.7451 41.6082 57.8719 41.7764C58.003 41.9403 58.0685 42.161 58.0685 42.4385C58.0685 42.6613 58.0072 42.8714 57.8846 43.069C57.7662 43.2666 57.5908 43.4263 57.3583 43.5482C57.13 43.6659 56.8594 43.7248 56.5466 43.7248Z" fill="white"/>
<path d="M60.7289 40.1496C60.9953 40.1496 61.232 40.2063 61.4392 40.3198C61.6506 40.4333 61.8154 40.6015 61.9338 40.8243C62.0564 41.0471 62.1177 41.3161 62.1177 41.6314V43.6806H61.4011V41.7386C61.4011 41.4275 61.3229 41.19 61.1665 41.026C61.0101 40.8579 60.7966 40.7738 60.526 40.7738C60.2554 40.7738 60.0398 40.8579 59.8791 41.026C59.7227 41.19 59.6445 41.4275 59.6445 41.7386V43.6806H58.9216V39.0146H59.6445V40.6099C59.7671 40.4628 59.9214 40.3493 60.1074 40.2694C60.2977 40.1895 60.5048 40.1496 60.7289 40.1496Z" fill="white"/>
<path d="M64.5555 43.7374C64.2257 43.7374 63.9277 43.6638 63.6613 43.5167C63.395 43.3654 63.1857 43.1552 63.0335 42.8861C62.8813 42.6129 62.8052 42.2976 62.8052 41.9403C62.8052 41.5872 62.8834 41.2741 63.0399 41.0008C63.1963 40.7276 63.4098 40.5174 63.6804 40.3703C63.9509 40.2232 64.2532 40.1496 64.5872 40.1496C64.9212 40.1496 65.2235 40.2232 65.494 40.3703C65.7646 40.5174 65.9781 40.7276 66.1345 41.0008C66.291 41.2741 66.3692 41.5872 66.3692 41.9403C66.3692 42.2934 66.2889 42.6066 66.1282 42.8798C65.9676 43.1531 65.7477 43.3654 65.4687 43.5167C65.1939 43.6638 64.8895 43.7374 64.5555 43.7374ZM64.5555 43.1131C64.7415 43.1131 64.9149 43.069 65.0755 42.9807C65.2404 42.8925 65.3736 42.76 65.475 42.5835C65.5765 42.4069 65.6272 42.1925 65.6272 41.9403C65.6272 41.6881 65.5786 41.4758 65.4814 41.3035C65.3841 41.1269 65.2552 40.9945 65.0945 40.9062C64.9339 40.818 64.7605 40.7738 64.5745 40.7738C64.3885 40.7738 64.2152 40.818 64.0545 40.9062C63.8981 40.9945 63.7734 41.1269 63.6804 41.3035C63.5873 41.4758 63.5408 41.6881 63.5408 41.9403C63.5408 42.3145 63.636 42.6045 63.8262 42.8105C64.0207 43.0123 64.2638 43.1131 64.5555 43.1131Z" fill="white"/>
<path d="M67.8068 40.7171C67.9294 40.5573 68.0964 40.4228 68.3078 40.3135C68.5192 40.2042 68.758 40.1496 69.0244 40.1496C69.3288 40.1496 69.6057 40.2253 69.8551 40.3766C70.1088 40.5237 70.3075 40.7318 70.4512 41.0008C70.595 41.2699 70.6668 41.5788 70.6668 41.9277C70.6668 42.2766 70.595 42.5898 70.4512 42.8672C70.3075 43.1405 70.1088 43.3548 69.8551 43.5104C69.6057 43.6617 69.3288 43.7374 69.0244 43.7374C68.758 43.7374 68.5213 43.6848 68.3141 43.5797C68.107 43.4704 67.9378 43.3359 67.8068 43.1762V45.3326H67.0838V40.2063H67.8068V40.7171ZM69.9312 41.9277C69.9312 41.6881 69.8805 41.4821 69.779 41.3098C69.6818 41.1332 69.5507 41.0008 69.3858 40.9125C69.2252 40.8201 69.0518 40.7738 68.8658 40.7738C68.684 40.7738 68.5107 40.8201 68.3458 40.9125C68.1852 41.005 68.0541 41.1395 67.9526 41.3161C67.8554 41.4926 67.8068 41.7007 67.8068 41.9403C67.8068 42.1799 67.8554 42.3901 67.9526 42.5709C68.0541 42.7474 68.1852 42.8819 68.3458 42.9744C68.5107 43.0669 68.684 43.1131 68.8658 43.1131C69.0518 43.1131 69.2252 43.0669 69.3858 42.9744C69.5507 42.8777 69.6818 42.739 69.779 42.5583C69.8805 42.3775 69.9312 42.1673 69.9312 41.9277Z" fill="white"/>
</g>
<defs>
<filter id="filter0_ii_1403_1458" x="0" y="-2.66667" width="80" height="85.3333" filterUnits="userSpaceOnUse" color-interpolation-filters="sRGB">
<feFlood flood-opacity="0" result="BackgroundImageFix"/>
<feBlend mode="normal" in="SourceGraphic" in2="BackgroundImageFix" result="shape"/>
<feColorMatrix in="SourceAlpha" type="matrix" values="0 0 0 0 0 0 0 0 0 0 0 0 0 0 0 0 0 0 127 0" result="hardAlpha"/>
<feOffset dy="-2.66667"/>
<feGaussianBlur stdDeviation="1.33333"/>
<feComposite in2="hardAlpha" operator="arithmetic" k2="-1" k3="1"/>
<feColorMatrix type="matrix" values="0 0 0 0 0 0 0 0 0 0 0 0 0 0 0 0 0 0 0.15 0"/>
<feBlend mode="normal" in2="shape" result="effect1_innerShadow_1403_1458"/>
<feColorMatrix in="SourceAlpha" type="matrix" values="0 0 0 0 0 0 0 0 0 0 0 0 0 0 0 0 0 0 127 0" result="hardAlpha"/>
<feOffset dy="2.66667"/>
<feGaussianBlur stdDeviation="1.33333"/>
<feComposite in2="hardAlpha" operator="arithmetic" k2="-1" k3="1"/>
<feColorMatrix type="matrix" values="0 0 0 0 1 0 0 0 0 1 0 0 0 0 1 0 0 0 0.15 0"/>
<feBlend mode="normal" in2="effect1_innerShadow_1403_1458" result="effect2_innerShadow_1403_1458"/>
</filter>
</defs>
</svg>
